<svg xml:space="preserve" style="enable-background:new 0 0 514 542.1;" viewBox="0 0 514 542.1" y="0px" x="0px" xmlns:xlink="http://www.w3.org/1999/xlink" xmlns="http://www.w3.org/2000/svg" id="Layer_1" version="1.1">
<style type="text/css">
	.st0{fill:#FFFFFF;}
	.st1{fill:#65ACE5;}
</style>
<path d="M461.6,225c12.2-1.5,29.4-9.7,40.7-24.6c9.9-13.1,13.7-29.4,10.7-47.1c-2.6-16-12.5-33.2-26.5-46
	c-15.7-14.5-35.2-22.5-54.9-22.5c-11.5,0-22.1,1.7-32,5.1c7.1-13.7,7.6-29,1.2-43.9c-9.8-22.8-34.3-40.6-58.2-42.5
	c-1.6-0.1-3.1-0.2-4.6-0.2c-31.9,0-48.5,26.2-49.2,27.4l-4.5,7.3c-2.1-1.6-4.3-3.2-6.4-4.9C252.6,12.7,219.6,0,191.8,0
	c-23.5,0-45,8.9-57.4,23.7l-0.1,0.1c-18.2,23.3-22.6,46.4-13.1,68.8c-11.9-5.3-24.7-7.9-39-7.9c-19.7,0-39.2,8-54.9,22.5
	c-14,12.9-23.8,30.1-26.5,46C-2,171,1.8,187.3,11.7,200.4c11.3,14.9,28.4,23,40.7,24.6c-5.4,5-11.3,10.7-17.5,17.5
	c-35.3,38.7-37.2,91.8-5,125c-14.9,17.7-18,40.6-8.5,63.3c10.4,24.9,33.5,42.8,56.1,43.4l2.2,0c17.7,0,28.9-6.5,35.7-13
	c-0.8,6.1-0.7,12.4,0.1,18.6c2.5,18.3,11.5,34.1,25.5,44.6c12.3,9.2,26.2,14,40.2,14c22.2,0,42.7-12.3,56.3-33.6l5.7-9
	c1,0.9,2,1.9,3.1,2.9c18.2,17.3,45.7,43.4,82.3,43.4c12.3,0,24.7-3,37-8.9c30.1-14.4,40.7-42.8,38.7-67.8c6.5,4.9,16,8.9,29.6,8.9h2
	l0.1,0c22.1-0.7,43.8-17.1,54-41c9.6-22.4,6.7-45.3-8-63.4c15.1-14.4,24-33.7,25.1-54.7c1.4-25.7-8.5-51.5-27.8-72.6
	C472.9,235.7,467.1,229.9,461.6,225z M242.1,495.1l0.1-0.1c0,0,0,0,0.1,0L242.1,495.1z"></path>
<g>
	<path d="M222.9,125.8c21.9,2.1,27.1-1.1,26.6-4.9c-8.5-4.5-17.3-8.7-25.6-12.6c-23.3-11-40.1-18.9-43.6-31.9
		c-1-3.8-1.2-9.5,3.1-15.8c4.3-6.3,11.5-9.9,19.1-9.7c14.7,0,32.5,11.3,54.9,25.5c1.3,0.8,2.6,1.6,3.9,2.4
		c32.1,11.7,90.8,26.4,128.1-4.5c1.2-5.8,1.1-11.8-0.4-17.7c-2.6-10.5-8.6-19.9-17.1-26.7c-4.8-3.9-15.7-11.9-22.6-12.8
		c6.1,1.6,11.1,6,13.5,11.8c2.7,5.5,5.5,16.9-5.6,31.2c-4.1,5.2-11.9,11.5-25.7,11.5c-17.3,0-39.9-10.2-62.1-28.1
		c-23.1-18.6-52.9-30.1-77.7-30.1c-18.6,0-35.9,5.9-46,18c-10.9,13.1-15.2,25.9-15.1,38.1C141.6,87.7,182,121.9,222.9,125.8z" class="st0"></path>
	<path d="M156.7,185.1c1.3-5.1,2-10.3,2.1-15.4c0.4-16.6-4.8-33.8-17.5-46.3c-18.8-18.4-39.3-25.2-59-25.2
		c-16.3,0-32.5,6.7-45.7,18.9c-11.8,10.9-20.1,25.2-22.3,38.3c-1.6,9.8-0.8,18.6,2.4,26.6c0.1-6.9,1.6-13.7,4.4-20
		c4.6-10.4,15-23.9,38.2-29.2c3.5-0.8,7-1.2,10.5-1.2c14.2-0.1,27.5,6.6,35.8,18c6.9,9.6,8.6,21.3,4.9,31.9c-1.8,5-4,9.3-6.5,13.3
		l0.1-0.1C117.8,214.3,142.7,197.3,156.7,185.1z" class="st0"></path>
	<path d="M169.5,330.6c-9.2-14.5-22.8-14.2-22.8-14.2l0-0.1c-12.8,15.5-29.8,23.5-43.9,23.5c-11.1,0-20.5-4.8-25.8-13.3
		c-8.2-13.1-7.3-27.2,2.7-41.7c6-8.7,14.9-17.4,25.5-27c-1.1-2-2.3-4.2-3.6-6.6c-12.1-22.2-27.1-22.5-39.1-17.1
		c-5.4,4.9-11.3,10.6-17.6,17.5c-11.9,13.1-19.7,28.1-22.8,43.3c0,0,0,0,0,0c-2.2,32.8,12,50,32.4,57.9c9.9-4.5,20.5-5.8,29.4-5.8
		c12.1,0,23.8,3.5,35.4,7.9C149,348.9,173.2,336.4,169.5,330.6z" class="st0"></path>
	<path d="M179.4,188.4c0.9,3.2,5.2,5.1,3.6,8c-0.8,1.4-4.8,5.1-8.9,8.8c-0.2,1.9-7.9,7.6-8.5,10.6
		c-0.7,3.2,3,4.6,4.5,8.1c1.4,3.5-1.8,6.7-0.7,4.8c0.1-0.2,0.2-0.5,0.1-0.9c-0.3,2-1.5,3.5-1.3,4.4c0.3,1.3,2.1,1.6,1.3,3.2
		c0,0-0.9,3,0,3.9s8.1,7.9,6.7,10.8c-1.2,2.5-6.9,16.7-8.2,21.6c3.6,3.4,7.9,7.4,12.9,12c1.1,1,2,2.2,2.7,3.4
		c6.1,3.5,13.5,6.5,21.7,7.2c0.9,0.1,1.7,0.1,2.4,0.2c1,0,2.1,0.1,3.1,0c0,0,0,0,0,0c0,0,0,0,0,0c0,0,0,0,0.1,0c0,0,0,0-0.1,0
		c-0.8,0.2-19,5.5-19.6,6.5c-0.4,0.8,0,8.9-0.3,13l0,0c0.4,0.3,0.9,0.4,1.4,0.4h0.2c7.5-1.1,13.6-7.6,15.9-10.4
		c2.5-3,6.4-4.5,10.2-3.9c6.1,0.9,10.3,6.6,9.4,12.7c-0.5,3.5-1.5,7-2.8,10.3c0,0.1-0.1,0.2-0.1,0.2c0,0.1,0,0.1-0.1,0.2
		c-0.3,0.6-0.5,1.2-0.8,1.8c0,0.1,0,0.1,0,0.2c1,1.9,1.5,4,1.2,6.1c-3.8,29.4-21.1,48.1-46.1,50c-1.4,0.1-3,0.2-4.4,0.2
		c-16.2,0-31.9-6.4-47.2-12.7c-14.5-5.9-29.6-12.1-44-12.1c-10.6,0-20.2,3.3-29.6,10c-10.4,7.5-17.3,16.5-20.6,26.7
		c-2.8,9.3-2.7,19.2,0.2,28.4c6,19.9,22.8,35.6,40,38.2c0.1,0,0.2,0,0.3-0.1c0.1-0.1,0-0.3-0.1-0.3c-7.3-4.6-12.9-11.4-16-19.4
		c-5.3-14.1-0.9-29,11.6-40.1c6.1-5.7,14.2-8.8,22.5-8.8c10.7,0,21.2,4.9,32.3,10.2c1.1,0.5,2.3,1.1,3.4,1.6
		c11.4,1.6,26.2,2.6,44.9,1.9c0,0,0,0,0.1,0c5-1.1,9.9-1.7,14.6-2c28.2-6.8,41.2-29,46.3-41c1.2-8.2,3.6-17.1,7.3-26.6
		c-2.3,23.5-1.7,39.5,1.7,51.4c4.8,10.4,13.4,21.8,28.6,29.4c27.6,13.9,61.3,28.5,68.2,38c1.9,1.9,3.3,4.1,4.1,6.6
		c1.3,4.2,0.5,8.7-2,12.2c-2.8,4.2-7.6,6.6-12.6,6.4c-9.6,0-21.9-7.1-50.8-29.2c-20.6-15.8-51.8-34.7-83.3-34.7
		c-18.9,0-35.6,4.7-49.9,18.7c-10.3,10.1-15.2,27.5-14.2,43.2c1,14.8,7.7,27.8,18.3,35.8c9.9,7.4,21,11.3,32.1,11.3
		c2.3,0,4.5-0.2,6.7-0.5c-9.7-1.2-17.6-4.9-23.1-10.9c-4.3-4.8-9.2-13.4-7.8-27.4c1.7-17.2,14.1-27.5,33.1-27.5
		c8.1,0,17.4,1.9,26.7,5.2c13.9,3.1,31.1,9.8,51.2,22.9c53.7,35.1,98.7,28.2,122.6-9.4c0.2-2.4,0.3-4.8,0.3-7.3
		c-0.2-10.4-3.2-20.7-8.6-29.5c-5.5-9-13.7-16-23.3-20.2c-11.7-5-22.2-8.5-31.5-11.6c-18.6-6.1-33.3-11-43.6-23.5
		c-9-10.9-10.5-36.5-3.9-49.6c0.2,7.3,0.8,13.5,1.7,19c0,0,0-0.1,0-0.1s0,0.1,0,0.2c0.6,3.7,1.5,7,2.4,10
		c4.3,10.5,15.9,25.9,47.7,31.6c35.8,6.4,64.5-3.2,83.1-4.2c2.1-0.4,4.2-0.6,6.4-0.6c8.3,0,16.4,3.2,22.5,8.8
		c12.8,11.2,17.3,26.1,12.1,39.9c-3.4,8.7-9.9,15.7-18.3,19.8c-0.1,0-0.2,0.2-0.2,0.3c0,0.1,0.1,0.2,0.3,0.2
		c17.8-1.8,35.6-17.9,41.8-38.4c3-9.2,3-19.1,0.2-28.4c-3.2-10.2-10.2-19.2-20.6-26.7c-9.4-6.7-19-10-29.6-10
		c-14.5,0-29.5,6.1-44,12.1c-15.2,6.2-31,12.7-47.2,12.7c-1.5,0-3-0.1-4.4-0.2c-25-1.9-42.3-20.5-46.1-49.9
		c-0.3-2.4,0.2-4.8,1.5-6.8c0-0.1,0-0.2,0-0.2c-1.8-3.8-3-7.8-3.6-12c-0.6-3.9,0.9-7.7,3.9-10.2c4.8-3.9,11.8-3.3,15.8,1.5
		c2.3,2.8,8.4,9.3,15.9,10.4h0.2c0.2,0,0.5-0.1,0.7-0.1c-0.3-4.1,0.1-12.6-0.3-13.4c-0.6-1-19.6-6.5-19.6-6.5c0.2,0,0.4,0,0.7,0.1
		c-0.3,0-0.5-0.1-0.5-0.1c0.9,0,1.8,0,2.7,0c0.9-0.1,2-0.1,3.3-0.2c8.4-0.9,16-4,22.1-7.7c0.7-1.1,1.5-2.1,2.4-2.9
		c4.7-4.3,8.9-8.1,12.4-11.4c-0.3-1-0.6-2.3-0.9-3.5c-2.1-6.2-6.2-16.5-7.3-18.6c-1.4-2.8,5.8-9.9,6.7-10.8c0.4-0.4,0.4-1.1,0.4-1.9
		c-0.1-0.8-0.3-1.4-0.6-2c-0.8-1.6,1-1.9,1.3-3.2c0.1-0.6-0.6-1.7-1-3c-0.5-0.6-1.6-2.8-0.7-5.2c1-2.5,3.2-3.9,4.1-5.7
		c0.2-0.5,0.3-1,0.4-1.5c0-0.3,0-0.6-0.1-1c-0.6-2.9-7.7-8.2-8.5-10.4c-4.1-3.8-8.3-7.6-9.2-9c-1.6-2.8,2.7-4.8,3.6-8
		c0.5-1.7-1.6-7.8-3.7-13.2c-1.1-1.2-2.2-2.5-3.4-3.7c-17-17.2-40.5-25.9-69.7-25.9c-16.3,0-30.8,2.7-43.4,8.1
		c1.1,1.8,2.5,3.4,4,4.9c2.8,2.5,14,4.7,15.5,6.5c1.5,1.8-10.3,13.4-11.3,15.4c-0.8,1.6,0.4,4.2,2.4,6.5c2.3,1.4,7.1,4.2,9.1,3.9
		c2.7-0.5,1.2-0.1,2.1,1.6c0.9,1.8,1.8,0.5,0,2.9c-1.8,2.5-3.6,2.8-2.1,5.2c1.5,2.3,2-1.2,1.2,3.4c-0.5,2-0.6,4-0.3,6
		c-0.3-1.1-1.2-5.3-0.9-6.5c0.5-1.4-2.7-2.6-1.7-5.2c1.1-2.7,2.3-2.2,2.5-3.8c0.1-1.6-0.7-2.1-1.3-2.1c-1.8,0.2-3.6-0.1-5.2-1
		c-0.3,0.9-0.5,1.9-0.6,2.9c-0.7,5.5-6.1,4.1-7.6,3.8c-1.5-0.3-2.5,4.6-3.1,6.5c-0.6,1.9-2.3,1.2-4.5,2c-2.1,0.8-0.5,2.7-1,4.1
		c-0.5,1.4-4.8,3.8-4.8,3.8s2-2.1,3.4-3.4c1.4-1.3-0.9-3.2,1.4-5.4c2.3-2.2,3.8-0.8,4.1-1.8c0.9-1.6,1.6-3.2,2.1-4.9
		c0.8-3.1,2.5-0.8,5.2-2.2s2.7-4.2,2.7-5.2s-7-7.9-5.3-12c1.8-4,10.1-11.3,9.7-13.4c-0.3-2-6.9-1.2-19.9-10.4
		c-8.3,4.1-15.8,9.4-22.3,15.9c-1.6,1.6-3.1,3.3-4.6,5C180.7,181.6,178.9,186.8,179.4,188.4z M252.9,308.2c-1.3,2-2.9,3.9-4.7,5.4
		c-3.4,2.6-3.4,0.4-5.6-3.2c-2.2-3.5,6.2-31.5,8.8-31.5c1.9,0,3.3,13.1,3.9,20.3C255.5,302.4,254.7,305.6,252.9,308.2z M270.8,310.5
		c-2.2,3.5-2.2,5.8-5.7,3.2c-1.8-1.6-3.4-3.4-4.7-5.4c-1.8-2.6-2.6-5.8-2.3-8.9c0.6-7.2,2-20.3,3.9-20.3
		C264.6,279,273,307,270.8,310.5z M261.5,256.7c2.2,0.2,2.4,3.7,3.2,5.2c0.7,1.5,4.6-0.6,9.4-1.9c4.8-1.3,25.2-19.2,32.2-20.7
		c7.1-1.5,16.2,0.9,16.2,0.9s-4.7-0.9-14.7,0.6c-10,1.5-26.8,18.6-30.8,20.4s-12.8,4-13.4,0C263.1,257.2,260.5,256.6,261.5,256.7z
		 M206.8,239.4c7.1,1.5,27.4,19.4,32.2,20.7c4.8,1.3,8.7,3.4,9.4,1.9c0.7-1.5,0.9-5,3.2-5.2c1-0.1-1.5,0.5-2.1,4.5
		c-0.6,4-9.4,1.8-13.4,0s-20.8-18.8-30.8-20.4c-10-1.5-14.7-0.6-14.7-0.6S199.7,237.8,206.8,239.4z M200.5,249.8
		c4.7,1,33.4,20.1,40.3,20.5c6.9,0.3,5.4,0.9,7.9-2.3c0.1-0.2,0.2-0.3,0.3-0.5c0,0,0,0.5,0,1.3c0.8-0.6,1.6-1.3,2.2-2.1
		c-0.2-1-0.3-1.3,0.8-5.1c0,0,0,0.2-0.1,0.6l0.1-0.4c-0.1,1.1-0.2,2.1-0.2,3.2c0.7-0.2,2.3-1.1,2.7,0.1c0.4,1.2,0.5,0.5,1.2,0.5
		c0.9-0.2,1.8-0.1,2.6,0.2c1.1,0.5,0.1-1,0.9-1.3c0.8-0.3,2,0.7,2.2,0.1c0-0.2,0.1-0.3,0.2-0.5c0-0.8-0.1-1.6-0.2-2.4l0,0.2
		c0-0.2-0.1-0.4-0.1-0.4c1.1,4.1,1,4.1,0.8,5.3c0.7,0.8,1.4,1.5,2.3,2.1c0-0.8,0-1.4,0-1.4c0.2,0.3,0.4,0.7,0.6,1.1
		c1.9,2.5,1,2,7.4,1.6c7-0.4,35.7-19.5,40.3-20.5c4.7-1,18.6,1.6,18.6,1.6l0,0c0.1,0,0.2,0,0.3,0c0.1,0,0.2,0.2,0.2,0.3
		c0,0.1-0.1,0.1-0.2,0.2c-0.1,0-0.2,0.1-0.3,0.1c-1.5,0.7-6.7,3.5-7.6,5.8c-0.6,1.6-1.2,5.4-1.6,8.5l0,0.6c0.3,4-1.3,7.8-4.4,10.4
		c-4.6,3.9-11,5.3-20.3,4c-5.3-0.7-14.2,0.2-20-1.8c-1.3-0.4-2.4-1.1-3.4-2c-2.9-0.9-4.8-0.5-6.8-1.7c-2.4-1.5-1.1-1.6-2.7-2.2
		c-1.6-0.7-3.1-1.5-4.6-2.5c-0.4-0.2-0.8-0.5-1.2-0.6c-1.4-0.3-2.9-0.3-4.4,0c-0.4,0.2-0.8,0.4-1.2,0.6c-1.4,1-3,1.8-4.6,2.5
		c-1.6,0.7-0.3,0.7-2.6,2.2c-2,1.3-4,0.8-7,1.8c-1,0.8-2.1,1.5-3.3,1.9c-5.8,2-14.7,1-20,1.8c-9.3,1.3-15.7-0.1-20.3-4
		c-3-2.6-4.6-6.5-4.4-10.4l0.1-1.1c-0.4-2.9-0.9-6.5-1.5-8c-0.9-2.2-5.4-4.7-7.3-5.6c-0.3-0.1-0.5-0.2-0.8-0.3
		c-0.1,0-0.1-0.1-0.2-0.2c0-0.1,0-0.3,0.2-0.3c0,0,0.1,0,0.1,0l-0.1,0C181.8,251.4,195.8,248.8,200.5,249.8z" class="st0"></path>
	<path d="M165.3,214.3c0.2-0.4,0.5-0.8,0.8-1.3C165.6,213.5,165.3,214,165.3,214.3z" class="st0"></path>
	<path d="M344.5,268.6c0.3,1.2,0.6,2.5,0.9,3.5c0,0,0.1-0.1,0.1-0.1C345.3,271.1,345,270,344.5,268.6z" class="st0"></path>
	<path d="M347.4,218.2c0.2-0.5,0.4-0.9,0.4-1.5C347.7,217.2,347.6,217.7,347.4,218.2z" class="st0"></path>
	<path d="M205.2,294.2c0.8,0.1,1.6,0.1,2.4,0.2C206.9,294.3,206.1,294.2,205.2,294.2z" class="st0"></path>
	<polygon points="210.7,294.3 210.7,294.3 210.7,294.3" class="st0"></polygon>
	<path d="M308.5,294.1c-1.3,0.1-2.4,0.2-3.3,0.2C306.3,294.3,307.4,294.2,308.5,294.1z" class="st0"></path>
	<path d="M281.6,354.5C281.6,354.5,281.6,354.5,281.6,354.5c0,0.1,0,0.2,0,0.2C281.6,354.5,281.6,354.5,281.6,354.5z" class="st0"></path>
	<path d="M410.4,195.3c-2.7-4.1-5-8.6-6.9-13.8c-3.7-10.6-2-22.2,4.9-31.9c8.3-11.4,21.7-18.1,35.8-18
		c3.6,0,7.1,0.4,10.5,1.2C478,138,488.3,151.6,493,162c2.8,6.3,4.2,13.1,4.3,20c3.2-7.9,4-16.8,2.4-26.6
		c-2.1-13.1-10.5-27.4-22.3-38.3C464.2,105,448,98.2,431.7,98.2c-19.7,0-40.2,6.8-59,25.2c-12.7,12.4-17.9,29.7-17.5,46.2
		c0.1,4.8,0.8,9.6,1.9,14.4C370.7,196.2,396.2,214.4,410.4,195.3z" class="st0"></path>
	<path d="M413.3,251.2c-1.4,2.6-2.7,5-3.9,7.2c10.3,9.4,19.1,18,24.9,26.5c10,14.6,10.9,28.6,2.7,41.7
		c-5.3,8.4-14.7,13.3-25.8,13.3c-14.1,0-31-8-43.8-23.4c-3.3,0.3-14.1,2.1-21.8,14.2c-3.6,5.7,19.9,18,49.2,24
		c11.4-4.3,22.9-7.7,34.8-7.7c9,0,18.2,2,27.6,7c20.3-6.5,35.3-21.6,36-50.5c-1.7-18.1-10-36.3-24.1-51.8
		c-6.6-7.2-12.7-13.1-18.3-18.2C439,228.7,424.9,230,413.3,251.2z" class="st0"></path>
</g>
<g>
	<path d="M260.9,286.3c-0.4,2.6-1.4,10.2-0.6,14.3c1,5,1,2.1,1,2.1l-0.3-16.4C261.1,286.2,260.9,286.2,260.9,286.3z" class="st1"></path>
	<path d="M252.3,286.4l-0.3,16.4c0,0,0,2.9,1-2.1c0.8-4.1-0.2-11.7-0.5-14.3C252.4,286.2,252.3,286.2,252.3,286.4z" class="st1"></path>
	<g>
		<path d="M264.5,270.4c-0.1-0.5-0.1-1-0.1-1.5c-0.8-0.6-1.6-1.3-2.3-2.1c0,0.1,0,0.1,0,0.2
			C261.9,268,263.4,269.5,264.5,270.4z" class="st1"></path>
		<path d="M251.3,267.1c0-0.1-0.1-0.3-0.1-0.4c-0.6,0.8-1.4,1.5-2.2,2.1c0,0.5-0.1,1.1-0.1,1.6
			C249.9,269.5,251.4,268,251.3,267.1z" class="st1"></path>
		<g>
			<path d="M183,196.3c1.7-2.8-2.7-4.8-3.6-8c-0.4-1.5,1.3-6.8,3.2-11.8c-24.5,28.9-27.5,69.9-27.8,82
				c0,0.1,0,0.1,0.1,0.1c2,2.2,6,6.2,11.9,11.8c2-5.7,5-17.9,5.2-21.8c0.2-3.4-5.6-8.6-2.5-13.3c0.8-1.6-1-1.9-1.3-3.2
				c-0.2-0.8,1-2.3,1.3-4.4c-0.3-2.5-4.4-7.7-4.9-10.9c-0.1-0.7,0.2-1.6,0.7-2.5c0.1-0.3,0.4-0.7,0.8-1.3c2.7-3.8,8-8.2,8-8.2
				c0,0.1,0,0.2,0,0.3C178.1,201.4,182.1,197.7,183,196.3z" class="st1"></path>
			<path d="M333.7,188.4c-0.9,3.2-5.2,5.1-3.6,8c0.8,1.4,5,5.2,9.2,9c-0.1-0.2-0.1-0.4-0.1-0.6c0,0,10.1,8.3,9.5,12
				c-0.5,3.7-5.8,9.9-4.8,11.8c0.3,0.6,0.2,0.7,0,0.4c0.5,1.4,1.1,2.4,1,3c-0.3,1.3-2.1,1.6-1.3,3.2c0.3,0.6,0.5,1.2,0.6,2
				c-0.1-1-0.4-2-0.4-2c3.1,4.8-2.6,10-2.5,13.3c0.2,3.9,3.4,16.6,5.3,22.1c6.1-5.8,10.2-9.9,12.2-12.1c0,0,0-0.1,0-0.1
				c-0.3-12.3-3.4-54.4-29-83.3C332.1,180.6,334.2,186.7,333.7,188.4z" class="st1"></path>
			<path d="M210.7,294.4c-1,0.1-10.5,1.1-22.5-4c-0.9-0.2-2-0.3-3.4-0.1c0.8,3.1,0.5,6.5-1.1,9.5
				c-1.2,2.4-2.7,4.7-4.2,6.9c0,0,0,0,0,0c-0.1,0.1,0,0.3,0.1,0.3l11.2,7c0.2-4.2-0.1-12.3,0.3-13
				C191.6,299.8,209.9,294.6,210.7,294.4z" class="st1"></path>
			<path d="M322.3,314.2c0.2-0.1,0.5-0.2,0.7-0.3l11.2-7c0,0,0,0,0,0c0.1-0.1,0.1-0.2,0.1-0.3c-1.6-2.2-3-4.5-4.2-6.9
				c-1.5-3-1.9-6.4-1.1-9.5c-1.7-0.3-3.2-0.1-4.2,0.2c-0.4,0.2-0.8,0.3-1.1,0.5c-0.2,0.1-0.3,0.2-0.3,0.2v0
				c-10.3,3.9-18.4,3.5-20.3,3.4c-0.2,0-0.5,0-0.7-0.1c0,0,19.1,5.5,19.6,6.5C322.4,301.6,322,310.1,322.3,314.2z" class="st1"></path>
			<path d="M241.3,271.2c1.3,0.2,2.7,0.4,4,0.5c2.4,0.2,2.6-2.2,3.3-3.7c-2.5,3.2-1,2.6-7.9,2.3
				c-6.9-0.3-35.7-19.5-40.3-20.5c-4.7-1-18.6,1.6-18.6,1.6l0.1,0c9.1-1.6,23.2,5.1,24,5.4l0.1,0c0,0,0,0,0.1,0.1
				c10.2,4.4,20.2,11.5,35,14.1C241.1,271.1,241.2,271.1,241.3,271.2z" class="st1"></path>
			<path d="M248.8,273.5c1.6-0.7,3.1-1.5,4.6-2.5c0.4-0.2,0.8-0.5,1.2-0.6c1.4-0.3,2.9-0.3,4.4,0
				c0.4,0.2,0.8,0.4,1.2,0.6c1.4,1,3,1.8,4.6,2.5c1.6,0.7,0.3,0.7,2.7,2.2c2,1.3,3.9,0.8,6.8,1.7c-1.3-1.1-2.3-2.4-3-4
				c-2.3,0.1-5.6-0.6-6.1-1.2c-0.1-0.2-0.2-0.4-0.2-0.5c-0.8-0.8-1.9-2-2.7-2.7c-1.6-1.3-0.6-3-0.3-3.5c0.2-0.4-0.2-2.8-0.3-3.7
				l0-0.2c0.1,0.8,0.2,1.6,0.2,2.4c-0.1,0.1-0.1,0.3-0.2,0.5c-0.2,0.6-1.4-0.4-2.2-0.1c-0.8,0.3,0.2,1.8-0.9,1.3
				c-0.8-0.3-1.7-0.4-2.6-0.2c-0.7,0-0.8,0.8-1.2-0.5c-0.4-1.2-2-0.3-2.7-0.1c0-1.1,0-2.1,0.2-3.2l-0.1,0.4c-0.2,1-0.5,3.1-0.3,3.5
				c0.3,0.5,1.2,2.2-0.3,3.5c-0.8,0.7-1.9,1.9-2.7,2.7c0,0.2-0.1,0.4-0.2,0.5c-0.5,0.6-3.8,1.2-6.1,1.2c-0.7,1.6-1.8,3-3.1,4
				c2.9-1,5-0.5,7-1.8C248.5,274.3,247.2,274.2,248.8,273.5z" class="st1"></path>
			<path d="M312.7,249.8c-4.7,1-33.4,20.1-40.3,20.5c-6.5,0.3-5.6,0.8-7.4-1.6c0.6,1.4,1,3.2,3.1,3.1
				c1.4-0.1,2.8-0.3,4.1-0.5c0.1,0,0.1,0,0.2-0.1c14.7-2.6,24.7-9.7,34.9-14.1c0,0,0.1-0.1,0.1-0.1l0.1,0c0.8-0.4,14.8-7,23.9-5.5
				l0,0C331.3,251.4,317.3,248.8,312.7,249.8z" class="st1"></path>
			<path d="M189.8,257.8c0.6,1.5,1.1,5,1.5,8l0.8-9.9c-4.4-1.8-7.7-3-9.5-3.7C184.3,253.1,188.9,255.6,189.8,257.8z" class="st1"></path>
			<path d="M322.1,266.3c0.4-3,0.9-6.9,1.6-8.5c0.9-2.3,6.2-5.1,7.6-5.8c-1.6,0.6-5.2,1.9-10,3.9L322.1,266.3z" class="st1"></path>
			<path d="M212.1,271.1l3.7,3.5c0.1,0.1,0.3,0.2,0.5,0.1l6.5-1.5l1.8-3.8c-4.6-2.6-9.4-4.9-14.3-6.8l1.2,7.5
				C211.6,270.4,211.8,270.8,212.1,271.1z" class="st1"></path>
			<path d="M288.7,269.4l1.8,3.8l6.5,1.5c0.2,0,0.4,0,0.5-0.1l3.7-3.5c0.3-0.3,0.5-0.6,0.6-1l1.3-7.5
				C298.1,264.5,293.3,266.8,288.7,269.4z" class="st1"></path>
			<path d="M164.5,124.2c6.6,5,13.4,9.3,19.7,13c11,2.1,27.6,3.1,51.5-0.9c12.9-2.1,21.6-4.8,27.4-7.6
				c-4.4-2.7-8.9-5.3-13.5-7.8c0.5,3.8-4.7,7-26.6,4.9c-41-3.9-81.3-38.1-92.2-56.1c0,3.9,0.5,7.7,1.3,11.4
				C135.1,95.7,146.1,110.2,164.5,124.2z" class="st1"></path>
			<path d="M368,103.8c11.5-6.9,19.2-17.7,21.6-29.4c-37.3,31-96,16.3-128.1,4.5c25.9,16.2,54.9,31.4,80.4,31.4
				C351.1,110.4,360.6,108.7,368,103.8z" class="st1"></path>
			<path d="M183.6,353.2c10.8-10.9,18.8-23.6,23.3-36.5c-3.6,1.6-8,2.8-13,3.5c-2.4,0.3-4.8,0-7-1.1
				c-0.5-0.2-0.9-0.5-1.4-0.8l-21.1-9.2c0,0,0,0,0,0c-0.1-0.1-0.1-0.2,0-0.3c3.3-3.2,6.2-6.7,8.6-10.6c-1-1.1-0.7-5.1-0.2-8.5
				c-2.3-2.1-5.7-5.2-9.3-8.6c-3.2,14.3-9.4,26-17,35.1l0,0.1c0,0,13.7-0.2,22.8,14.2c3.7,5.8-20.5,18.3-50.3,24.2
				c14.6,5.5,28.8,12.4,42.7,15.4C169.8,365.5,177.1,359.8,183.6,353.2z" class="st1"></path>
			<path d="M22,294.9C22,294.9,22,294.9,22,294.9c-2.5,12.1-2.1,24.3,1.4,35.9c3.5,11.4,9.9,21.7,18.6,29.8
				c1.2-0.9,2.4-1.9,3.6-2.8c2.8-2,5.7-3.7,8.7-5C34,344.9,19.9,327.7,22,294.9z" class="st1"></path>
			<path d="M156.7,185.1c-14,12.2-38.9,29.2-52.6,9.5l-0.1,0.1c-6.4,9.8-15.1,17.1-25.4,25.5c-5,4.1-10.3,8.6-16.1,13.8
				c12.1-5.4,27-5.1,39.1,17.1c1.3,2.4,2.5,4.6,3.6,6.6c3.4-3.1,6.9-6.2,10.6-9.5l2.4-2.1C134.4,231.8,150.9,208.7,156.7,185.1z" class="st1"></path>
			<path d="M193.1,403c7.3,0,14.7,1.1,22.1,2.9c2.8-1.2,5.5-2.6,8.2-4.1c4.4-2.5,8.5-5.4,12.3-8.7
				c-2.9-9.1-3.7-19.4-2.1-30.9c-5.1,11.9-18.1,34.1-46.3,41C189.3,403,191.2,403,193.1,403z" class="st1"></path>
			<path d="M127.8,403.3c7.5,3.5,15.5,7,24.3,9.3c6.6-3.5,13.7-5.9,20.6-7.4c0,0,0,0-0.1,0
				C154,405.9,139.2,404.9,127.8,403.3z" class="st1"></path>
			<path d="M268,486.7c-20.1-13.1-37.3-19.8-51.2-22.9c8,2.9,16,6.9,23.2,11.7c4.4,3,9.3,7.6,15.4,13.4
				c16.6,15.8,41.8,39.7,73,39.7c10.2,0,20.7-2.6,31.2-7.6c17.8-8.6,29-24.6,31-43.7C366.7,515,321.7,521.8,268,486.7z" class="st1"></path>
			<path d="M272.2,421.9c12.9,8.2,28,14.1,40.1,18.8c12.8,5,21.9,8.6,27.1,13.7c-6.9-9.6-40.6-24.2-68.2-38
				c-15.2-7.6-23.7-18.9-28.6-29.4c0.2,0.7,0.4,1.4,0.6,2C247.4,402.2,255.6,411.4,272.2,421.9z" class="st1"></path>
			<path d="M364.4,411.7c8.9-2.7,17-6.5,24.5-10c8.9-4.2,17.4-8.2,26-9.6c-18.6,1-47.3,10.6-83.1,4.2
				c-31.8-5.7-43.4-21.2-47.7-31.6c9.8,29.9,36.4,28.1,78.8,46.3C363.4,411.3,363.9,411.5,364.4,411.7z" class="st1"></path>
			<path d="M367.4,316.4c-7.6-9.2-13.8-20.9-17.1-35.2c-3,2.9-5.9,5.5-8.1,7.5l-1.3,1.7c0.4,3.1,0.7,6.5-0.1,7.7
				c2.4,3.9,5.3,7.5,8.6,10.7c0,0,0,0,0,0c0.1,0.1,0.1,0.3,0,0.3l-21,9.2c-2,1.3-4.3,2-6.7,2c-0.6,0-1.1,0-1.7-0.1
				c-4.9-0.7-9.3-2-12.9-3.5c4.5,12.9,12.5,25.6,23.3,36.5c6.6,6.4,13.8,12,21.6,16.9c14-3.1,28.3-10,42.9-15.5
				c-29.3-6.1-52.8-18.3-49.2-24C353.3,318.5,364.1,316.7,367.4,316.4z" class="st1"></path>
			<path d="M493.2,303.4c-0.7,28.9-15.7,44-36,50.5c2.6,1.4,5.2,3,7.8,4.9c1.7,1.2,3.3,2.4,4.8,3.7
				c9.9-8.5,17-19.2,20.8-31.7C493.2,322,494.1,312.7,493.2,303.4z" class="st1"></path>
			<path d="M410.4,195.3c-14.2,19.1-39.8,0.9-53.3-11.2c5.6,24,22.3,47.5,38.7,62.1l2.4,2.1c3.9,3.5,7.6,6.8,11.2,10
				c1.2-2.2,2.5-4.6,3.9-7.2c11.5-21.2,25.7-22.4,37.5-17.8c-5.5-4.9-10.6-9.2-15.3-13.1C425.4,212,416.8,204.9,410.4,195.3z" class="st1"></path>
			<path d="M56.9,202h-15l-2-3.5l-4.3-7.6l-2-3.5l2.1-3.5l3.3-5.5l-0.7-0.3l-6.7-3l-3.7-1.7l-1-0.4
				c-2.1,5.4-3.2,11.9-2.2,19.6c0,0,2.1,3.9,6.7,8.3c7.3,7.2,21,15.7,41.9,10.7C73.1,211.5,64.9,209.3,56.9,202z" class="st1"></path>
			<path d="M483.7,199.2c3.5-3.7,5.1-6.7,5.1-6.7c1-7.4,0-13.6-1.9-18.9l-0.4,0.2l-2.8,1.3l-6.7,3l-0.4,0.2l3.3,5.5
				l2.1,3.5l-2,3.5l-4.3,7.6l-2,3.5h-17c-7.2,6.5-14.6,9-16.1,9.4c-0.2,0.1-0.2,0.1-0.2,0.1c0.2,0,0.3,0.1,0.5,0.1
				C462.9,216.7,476.8,206.6,483.7,199.2z" class="st1"></path>
			<path d="M333.9,26.7l14.8,10.8l5.8,1.7c-0.3-2.7-1-6-2.7-9.2c-2.2-4.3-6-8.5-12.6-11.6c0,0-6.3-1.1-14,1.7
				c-6.7,2.5-14.4,7.9-19.9,19.7c0,0,4.6-4,13.1-5.2L333.9,26.7z" class="st1"></path>
			<path d="M91.6,441.9v8.7l-12.3,0.8l-5.5,0.4c1.3,1.4,2.8,2.8,4.5,4.1c1.9,1.5,3.9,2.9,6.2,4.3c0,0,1.3-0.1,3.5-0.5
				c2.5-0.5,6-1.4,9.7-3.3c7.9-4,16.8-12.1,18.6-28.5C116.3,427.8,106.5,440.4,91.6,441.9z" class="st1"></path>
			<path d="M438.2,449.8h-2.6h-17.9l-5.3-10.3c-9.6-4.1-15.4-11.7-15.5-11.7c1.4,12.4,6.8,20.1,12.7,24.8
				c3.9,3.1,7.9,4.9,11.3,6c4.4,1.4,7.7,1.6,7.7,1.6c3.5-2,6.4-4.3,8.8-6.5c2.6-2.4,4.6-4.9,6.3-7.3l-4.7,1.9L438.2,449.8z" class="st1"></path>
			<path d="M206,503.7l-17.7,8.2l-5.4-4.7l-7.6,2.3l-0.2,0.1c4.8,4.5,12.2,8.4,23.2,8.6c0,0,4.8-1.4,10.3-5.2
				c6.8-4.6,14.7-12.8,16.3-26.4c0,0-6.5,6.6-17.3,10.9L206,503.7z" class="st1"></path>
		</g>
	</g>
</g>
<g>
	<path d="M37.1,157.4l-0.1,0.4c0.5-0.4,0.9-0.8,1.3-1.2L37.1,157.4z" class="st0"></path>
	<path d="M46.2,157.2l-3.8-2.9l-0.1-0.1l0,0l-3.9,2.4c-0.4,0.4-0.9,0.8-1.3,1.2l-2.6,10.8l6.7,3l0.9-0.8l4.8-4.3
		L46.2,157.2z" class="st0"></path>
	<polygon points="51,180.8 46,180.1 46,180.1 44.4,182.8 41.6,187.4 46,195 50.6,195 55.7,195 55.7,186.8" class="st0"></polygon>
	<polygon points="469.7,180.4 469.5,180.1 469.5,180.1 464.5,180.8 459.8,186.8 459.8,195 462.7,195 469.5,195 
		473.8,187.4" class="st0"></polygon>
	<path d="M52.2,142.9l6.1-1.6c1.7-0.9,3.6-2,4.7-2.8v-1.7l-12.2,4.2L52.2,142.9z" class="st0"></path>
	<polygon points="478.7,160.2 478,157.4 472.9,154.2 472.9,154.2 472.4,154.5 471.1,155.5 468.9,157.2 468.4,166.5 
		471.5,169.4 474.1,171.7 480.7,168.7" class="st0"></polygon>
	<path d="M453.7,136.9c-0.5-0.1-1.1-0.2-1.6-0.3v0.2v1.7c1.1,0.7,3,1.8,4.7,2.8l6.1,1.6l1.4-1.8l0.4-0.6
		C461.5,139.1,457.8,137.9,453.7,136.9z" class="st0"></path>
	<path d="M342.6,41.3l-6.4-4.5l-2.8-2l-1.5,0.8l-4.2,2.1l1.6,3.4l5.6,2c1.7-0.3,5.2-1,7.7-1.5
		C342.6,41.5,342.6,41.4,342.6,41.3z" class="st0"></path>
	<polygon points="354.4,46.5 354,46.4 353.7,46.3 349.5,45 349.2,44.9 347.3,47.7 345.5,50.3 349.1,54.5 350,55.5 
		355.3,49.2 355.3,46.8" class="st0"></polygon>
	<polygon points="84.4,441.6 78.3,438 77.7,437.6 76.3,439.2 74.9,440.9 75,441.2 76,444.6 84.6,444 84.6,441.8" class="st0"></polygon>
	<polygon points="200.6,494.9 190.3,497.3 187.9,500.9 187.3,501.7 189.5,503.6 196.6,500.4 200,498.8 200.9,495.4" class="st0"></polygon>
	<polygon points="174.2,498 170.4,496.8 168.2,496.1 167.7,498.3 167.6,498.4 167.6,498.7 168.1,499.6 168.2,499.9 
		170.4,503.6 176.6,501.8 176.9,499.1 176.9,499.1" class="st0"></polygon>
	<path d="M448.8,431.4l-0.5-0.9c-0.1,0.1-0.2,0.2-0.3,0.3c-1.2,1.2-2.7,2.6-4.6,4.4l0.1,0.5l0.4,1.9l0.7,1l1.6-0.7
		l2-0.8l1.2-4.7L448.8,431.4z" class="st0"></path>
	<polygon points="436.6,439.4 434.7,436.8 422.7,437.9 420.4,439.5 421.6,441.8 422.1,442.8 434.6,442.8 436.7,439.7" class="st0"></polygon>
	<path d="M210.7,334.5l-2.2-5.3l-1.3,2.2c-1.7,4-3.3,8-4.6,11.1l4-0.7L210.7,334.5z" class="st0"></path>
	<path d="M200.5,342.9l2.2-0.4c1.3-3.2,2.9-7.1,4.6-11.1L200.5,342.9z" class="st0"></path>
	<path d="M182.8,363.7l9.5-8.7l0-3.3c-0.1,0.7-13,12.7-13,12.7L182.8,363.7z" class="st0"></path>
	<path d="M303.5,332.5l2.8,8.7l5.7,0.4c-0.6-1.5-1.3-3.1-2-4.8l-4.5-7.6L303.5,332.5z" class="st0"></path>
	<path d="M313.1,341.7l-2.9-4.9c0.7,1.7,1.4,3.4,2,4.8L313.1,341.7z" class="st0"></path>
	<path d="M322.7,354.9l8,7.9h3.4l-0.6-0.5c-2.3-2-4.6-4.1-6.7-6.3c-1.3-1.4-2.6-2.8-3.9-4.2l-0.2-0.2V354.9z" class="st0"></path>
	<path d="M333.6,362.3l-10.6-10.5c1.3,1.4,2.5,2.8,3.9,4.2C329,358.2,331.2,360.3,333.6,362.3z" class="st0"></path>
	<polygon points="256.3,110.8 253.7,111.7 250.9,112.7 270.5,123.6 271,121.8 271.7,118.9" class="st0"></polygon>
	<polygon points="231.4,100.7 231,99.9 221.1,94.5 219,94.8 212.2,95.9 233.6,105.3" class="st0"></polygon>
	<polygon points="200.2,90.7 196.8,84.8 188.4,80.8" class="st0"></polygon>
</g>
</svg>
